<?xml version="1.0" standalone="no"?>
<!DOCTYPE svg PUBLIC "-//W3C//DTD SVG 20010904//EN"
 "http://www.w3.org/TR/2001/REC-SVG-20010904/DTD/svg10.dtd">
<svg version="1.0" xmlns="http://www.w3.org/2000/svg"
 width="700.000000pt" height="700.000000pt" viewBox="0 0 700.000000 700.000000"
 preserveAspectRatio="xMidYMid meet">
<metadata>
Created by potrace 1.11, written by Peter Selinger 2001-2013
</metadata>
<g transform="translate(0.000000,700.000000) scale(0.100000,-0.100000)"
fill="#000000" stroke="none">
<path d="M3318 5529 c-796 -77 -1538 -689 -1775 -1464 -67 -222 -95 -474 -74
-688 48 -500 255 -946 605 -1306 187 -191 346 -307 571 -416 121 -59 299 -125
309 -114 2 2 313 623 691 1379 378 756 689 1377 691 1379 8 9 65 -54 113 -123
139 -203 211 -435 211 -686 0 -315 -110 -581 -335 -806 -136 -136 -293 -234
-473 -294 -48 -16 -111 -32 -140 -36 -29 -4 -55 -10 -58 -15 -4 -6 377 -782
392 -798 10 -11 188 55 309 114 225 109 384 225 571 416 350 360 557 806 605
1306 44 454 -109 947 -416 1338 -446 569 -1129 878 -1797 814z m320 -874 c3
-3 -966 -1945 -975 -1955 -10 -10 -98 99 -147 179 -201 334 -231 761 -76 1106
184 411 662 703 1110 678 47 -2 86 -6 88 -8z"/>
</g>
</svg>
